<?xml version="1.0" standalone="no"?>
<!DOCTYPE svg PUBLIC "-//W3C//DTD SVG 20010904//EN"
 "http://www.w3.org/TR/2001/REC-SVG-20010904/DTD/svg10.dtd">
<svg version="1.0" xmlns="http://www.w3.org/2000/svg"
 width="225.000000pt" height="225.000000pt" viewBox="0 0 225.000000 225.000000"
 preserveAspectRatio="xMidYMid meet">

<g transform="translate(0.000000,225.000000) scale(0.100000,-0.100000)"
fill="#000000" stroke="none">
<path d="M1120 1800 l0 -50 55 0 55 0 0 50 0 50 -55 0 -55 0 0 -50z"/>
<path d="M940 1790 l0 -40 55 0 55 0 0 40 0 40 -55 0 -55 0 0 -40z"/>
<path d="M1300 1765 l0 -45 55 0 55 0 0 45 0 45 -55 0 -55 0 0 -45z m100 0 c0
-35 0 -35 -45 -35 -45 0 -45 0 -45 35 0 35 0 35 45 35 45 0 45 0 45 -35z"/>
<path d="M760 1685 l0 -65 80 0 80 0 0 65 0 65 -80 0 -80 0 0 -65z"/>
<path d="M312 1714 c-26 -18 -28 -37 -6 -58 12 -13 39 -16 123 -16 l107 0 133
-196 c88 -129 141 -198 158 -205 13 -5 154 -9 311 -9 244 0 291 2 310 16 24
17 29 43 10 62 -9 9 -89 12 -298 12 l-286 0 -134 196 c-74 107 -142 200 -151
205 -10 5 -71 9 -136 9 -91 0 -124 -4 -141 -16z"/>
<path d="M1360 1585 l0 -65 80 0 80 0 0 65 0 65 -80 0 -80 0 0 -65z"/>
<path d="M870 1482 c0 -114 -14 -104 133 -96 l98 6 -3 92 -3 91 -112 3 -113 3
0 -99z"/>
<path d="M865 1121 c-57 -26 -77 -53 -83 -109 -4 -44 -1 -52 28 -85 60 -68
165 -75 235 -14 72 62 53 166 -38 207 -53 24 -91 25 -142 1z m109 -90 c34 -38
-4 -81 -59 -67 -50 13 -33 86 20 86 12 0 30 -9 39 -19z"/>
<path d="M1243 1120 c-78 -35 -104 -115 -60 -181 59 -88 190 -92 261 -8 24 29
28 39 24 81 -6 56 -27 83 -83 109 -51 24 -89 23 -142 -1z m111 -86 c9 -8 16
-22 16 -29 0 -21 -29 -45 -55 -45 -25 0 -55 23 -55 42 0 20 33 48 56 48 12 0
30 -7 38 -16z"/>
</g>
</svg>
